<?xml version="1.0" encoding="utf-8"?>
<!-- Generator: Adobe Illustrator 24.0.0, SVG Export Plug-In . SVG Version: 6.00 Build 0)  -->
<svg version="1.1" id="Шар_1" xmlns="http://www.w3.org/2000/svg" xmlns:xlink="http://www.w3.org/1999/xlink" x="0px" y="0px"
	 viewBox="0 0 22.5 19" style="enable-background:new 0 0 22.5 19;" xml:space="preserve">
<path d="M21,19H1c-0.6,0-1-0.4-1-1V2.6c0-0.6,0.4-1,1-1h20c0.6,0,1,0.4,1,1V18C22,18.5,21.6,19,21,19z M2,17.1H20V3.5H2V17.1z"/>
<path d="M17.3,5c-0.6,0-1-0.4-1-1V0.9c0-0.6,0.4-0.9,1-0.9c0.6,0,1,0.4,1,0.9v3.1C18.3,4.7,17.9,5,17.3,5z"/>
<path d="M4.9,5c-0.6,0-1-0.4-1-1V0.9c0-0.6,0.4-0.9,1-0.9s1,0.4,1,0.9v3.1C5.9,4.7,5.4,5,4.9,5z"/>
<path d="M21,8.2H1.2C0.9,8.2,0.7,8,0.7,7.7c0-0.3,0.2-0.5,0.5-0.5H21c0.3,0,0.5,0.2,0.5,0.5C21.5,7.9,21.3,8.2,21,8.2z"/>
<path d="M5.6,10.1h-2v1.8h2V10.1z"/>
<path d="M8.8,10.1H6.9v1.8h1.9V10.1z"/>
<path d="M12.1,10.1h-1.9v1.8h1.9V10.1z"/>
<path d="M15.4,10.1h-2v1.8h2V10.1z"/>
<path d="M18.7,10.1h-1.9v1.8h1.9V10.1z"/>
<path d="M5.6,13h-2v1.9h2V13z"/>
<path d="M8.8,13H6.9v1.9h1.9V13z"/>
<path d="M12.1,13h-1.9v1.9h1.9V13z"/>
<path d="M15.4,13h-2v1.9h2V13z"/>
<path d="M18.7,13h-1.9v1.9h1.9V13z"/>
</svg>
